<svg width="18" height="29" viewBox="0 0 18 29" fill="none" xmlns="http://www.w3.org/2000/svg">
<path opacity="0.36" d="M14.3911 8.46026V7.47425H3.15166V8.46026C3.15166 8.81435 3.01099 9.15394 2.76061 9.40433C2.51023 9.65471 2.17064 9.79537 1.81655 9.79537C1.49632 9.79537 1.18922 9.92258 0.962791 10.149C0.736361 10.3754 0.609154 10.6825 0.609154 11.0028V24.4833C0.609154 25.2285 0.905192 25.9432 1.43214 26.4702C1.9591 26.9972 2.6738 27.2932 3.41902 27.2932H14.289C15.0343 27.2932 15.7492 26.9972 16.2764 26.4703C16.8037 25.9434 17.1001 25.2287 17.1005 24.4833V11.0028C17.1005 10.8441 17.0692 10.6869 17.0085 10.5403C16.9477 10.3937 16.8586 10.2605 16.7463 10.1484C16.634 10.0363 16.5007 9.94737 16.354 9.88679C16.2073 9.82621 16.0501 9.79515 15.8914 9.79537H15.7211C15.3678 9.79447 15.0292 9.65335 14.7799 9.40302C14.5305 9.15269 14.3907 8.81361 14.3911 8.46026Z" fill="#68E1FD"/>
<path d="M8.41718 5.62995C9.97185 5.62995 11.2322 4.36965 11.2322 2.81498C11.2322 1.26031 9.97185 0 8.41718 0C6.86251 0 5.6022 1.26031 5.6022 2.81498C5.6022 4.36965 6.86251 5.62995 8.41718 5.62995Z" fill="#FFD200"/>
<path d="M8.41575 3.75611V0.554566H8.62085V3.75611H8.41575ZM8.95976 1.61133C8.94976 1.51044 8.90682 1.43207 8.83095 1.37621C8.75508 1.32035 8.65211 1.29242 8.52205 1.29242C8.43367 1.29242 8.35905 1.30493 8.29819 1.32994C8.23733 1.35412 8.19064 1.38789 8.15812 1.43124C8.12644 1.47459 8.1106 1.52378 8.1106 1.57881C8.10893 1.62467 8.11852 1.66469 8.13937 1.69887C8.16104 1.73305 8.19064 1.76265 8.22816 1.78766C8.26568 1.81184 8.30903 1.8331 8.35822 1.85144C8.40741 1.86895 8.45994 1.88396 8.5158 1.89646L8.74591 1.95149C8.85763 1.9765 8.96018 2.00985 9.05356 2.05154C9.14694 2.09323 9.22781 2.1445 9.29617 2.20536C9.36454 2.26623 9.41748 2.33793 9.455 2.42047C9.49335 2.50301 9.51295 2.59764 9.51378 2.70436C9.51295 2.8611 9.47293 2.997 9.39372 3.11205C9.31535 3.22627 9.20196 3.31507 9.05356 3.37843C8.90599 3.44096 8.72798 3.47223 8.51955 3.47223C8.31278 3.47223 8.1327 3.44054 7.97929 3.37718C7.82671 3.31382 7.70749 3.22002 7.62161 3.09579C7.53657 2.97073 7.49197 2.81608 7.4878 2.63182H8.0118C8.01764 2.7177 8.04223 2.7894 8.08559 2.84692C8.12978 2.90362 8.18856 2.94656 8.26192 2.97574C8.33613 3.00408 8.41992 3.01826 8.5133 3.01826C8.60501 3.01826 8.68463 3.00492 8.75216 2.97824C8.82053 2.95156 8.87347 2.91446 8.91099 2.86693C8.94851 2.81941 8.96727 2.7648 8.96727 2.7031C8.96727 2.64558 8.95017 2.59722 8.91599 2.55803C8.88264 2.51885 8.83345 2.4855 8.76842 2.45799C8.70422 2.43047 8.62543 2.40546 8.53205 2.38295L8.25317 2.31292C8.03723 2.26039 7.86673 2.17827 7.74167 2.06655C7.61661 1.95483 7.5545 1.80434 7.55533 1.61508C7.5545 1.46 7.59577 1.32452 7.67914 1.20863C7.76335 1.09274 7.87882 1.00228 8.02556 0.937251C8.1723 0.87222 8.33904 0.839704 8.5258 0.839704C8.71589 0.839704 8.88181 0.87222 9.02354 0.937251C9.16611 1.00228 9.277 1.09274 9.3562 1.20863C9.43541 1.32452 9.47626 1.45875 9.47876 1.61133H8.95976Z" fill="white"/>
<path d="M1.55089 3.8657H16.0209V7.47425H1.55089V3.8657Z" fill="#24285B"/>
<path opacity="0.09" d="M5.80485 3.8657C5.66777 3.53252 5.59886 3.17524 5.6022 2.81498L11.1828 3.34119C11.1497 3.521 11.0978 3.69681 11.0278 3.8657H5.80485Z" fill="black"/>
<path d="M15.3465 23.809V22.8263H13.7985C12.9009 22.6301 11.9714 22.6301 11.0738 22.8263H9.50537V23.9571C9.50537 24.6621 10.8183 25.2343 12.4396 25.2343C14.0608 25.2343 15.3754 24.6621 15.3754 23.9571C15.373 23.9066 15.3633 23.8567 15.3465 23.809Z" fill="#FFD200"/>
<path opacity="0.09" d="M15.3465 23.809V22.8263H13.7985C12.9009 22.6301 11.9714 22.6301 11.0738 22.8263H9.50537V23.9571C9.50537 24.6621 10.8183 25.2343 12.4396 25.2343C14.0608 25.2343 15.3754 24.6621 15.3754 23.9571C15.373 23.9066 15.3633 23.8567 15.3465 23.809Z" fill="black"/>
<path d="M12.431 24.1002C14.0525 24.1002 15.3669 23.5283 15.3669 22.8229C15.3669 22.1176 14.0525 21.5457 12.431 21.5457C10.8096 21.5457 9.49515 22.1176 9.49515 22.8229C9.49515 23.5283 10.8096 24.1002 12.431 24.1002Z" fill="#FFD200"/>
<path d="M8.61643 23.8089V22.8263H7.06845C6.1675 22.6288 5.23445 22.6288 4.33351 22.8263H2.76509V23.9571C2.76509 24.6621 4.07977 25.2343 5.70098 25.2343C7.32219 25.2343 8.63686 24.6621 8.63686 23.9571C8.63632 23.9071 8.62945 23.8573 8.61643 23.8089Z" fill="#FFD200"/>
<path opacity="0.09" d="M8.61643 23.8089V22.8263H7.06845C6.1675 22.6288 5.23445 22.6288 4.33351 22.8263H2.76509V23.9571C2.76509 24.6621 4.07977 25.2343 5.70098 25.2343C7.32219 25.2343 8.63686 24.6621 8.63686 23.9571C8.63632 23.9071 8.62945 23.8573 8.61643 23.8089Z" fill="black"/>
<path d="M5.70098 24.1002C7.32242 24.1002 8.63686 23.5283 8.63686 22.8229C8.63686 22.1176 7.32242 21.5457 5.70098 21.5457C4.07953 21.5457 2.76509 22.1176 2.76509 22.8229C2.76509 23.5283 4.07953 24.1002 5.70098 24.1002Z" fill="#FFD200"/>
<path d="M14.8067 22.261V21.275H13.2536C12.3524 21.0797 11.4198 21.0797 10.5186 21.275H8.9502V22.4057C8.9502 23.1107 10.2649 23.6829 11.8861 23.6829C13.5073 23.6829 14.822 23.1107 14.822 22.4057C14.8228 22.357 14.8177 22.3084 14.8067 22.261Z" fill="#FFD200"/>
<path opacity="0.09" d="M14.8067 22.261V21.275H13.2536C12.3524 21.0797 11.4198 21.0797 10.5186 21.275H8.9502V22.4057C8.9502 23.1107 10.2649 23.6829 11.8861 23.6829C13.5073 23.6829 14.822 23.1107 14.822 22.4057C14.8228 22.357 14.8177 22.3084 14.8067 22.261Z" fill="black"/>
<path d="M11.8912 22.5522C13.5126 22.5522 14.8271 21.9803 14.8271 21.275C14.8271 20.5696 13.5126 19.9977 11.8912 19.9977C10.2698 19.9977 8.95531 20.5696 8.95531 21.275C8.95531 21.9803 10.2698 22.5522 11.8912 22.5522Z" fill="#FFD200"/>
<path d="M15.0519 20.6636V19.6793H13.5039C12.6035 19.4818 11.671 19.4818 10.7707 19.6793H9.20224V20.8084C9.20224 21.5134 10.5152 22.0856 12.1364 22.0856C13.7576 22.0856 15.0723 21.5134 15.0723 20.8084C15.0723 20.7594 15.0655 20.7107 15.0519 20.6636Z" fill="#FFD200"/>
<path opacity="0.09" d="M15.0519 20.6636V19.6793H13.5039C12.6035 19.4818 11.671 19.4818 10.7707 19.6793H9.20224V20.8084C9.20224 21.5134 10.5152 22.0856 12.1364 22.0856C13.7576 22.0856 15.0723 21.5134 15.0723 20.8084C15.0723 20.7594 15.0655 20.7107 15.0519 20.6636Z" fill="black"/>
<path d="M12.1364 20.9565C13.7579 20.9565 15.0723 20.3847 15.0723 19.6793C15.0723 18.9739 13.7579 18.4021 12.1364 18.4021C10.515 18.4021 9.20054 18.9739 9.20054 19.6793C9.20054 20.3847 10.515 20.9565 12.1364 20.9565Z" fill="#FFD200"/>
<path d="M15.0519 19.3864V18.3987H13.5039C12.6035 18.2012 11.671 18.2012 10.7707 18.3987H9.20224V19.5277C9.20224 20.2328 10.5152 20.8049 12.1364 20.8049C13.7576 20.8049 15.0723 20.2328 15.0723 19.5277C15.072 19.4799 15.0651 19.4323 15.0519 19.3864Z" fill="#FFD200"/>
<path opacity="0.09" d="M15.0519 19.3864V18.3987H13.5039C12.6035 18.2012 11.671 18.2012 10.7707 18.3987H9.20224V19.5277C9.20224 20.2328 10.5152 20.8049 12.1364 20.8049C13.7576 20.8049 15.0723 20.2328 15.0723 19.5277C15.072 19.4799 15.0651 19.4323 15.0519 19.3864Z" fill="black"/>
<path d="M12.1364 19.6793C13.7579 19.6793 15.0723 19.1075 15.0723 18.4021C15.0723 17.6967 13.7579 17.1249 12.1364 17.1249C10.515 17.1249 9.20054 17.6967 9.20054 18.4021C9.20054 19.1075 10.515 19.6793 12.1364 19.6793Z" fill="#FFD200"/>
<path d="M13.5686 9.73917L13.022 8.92005L11.7345 9.77153C10.8764 10.1088 10.1005 10.6262 9.45939 11.2889L8.15493 12.1591L8.78162 13.0991C9.1733 13.6866 10.5833 13.4397 11.9321 12.5337C13.2808 11.6277 14.0574 10.4289 13.6657 9.84135C13.638 9.80317 13.6053 9.76881 13.5686 9.73917Z" fill="#FFD200"/>
<path opacity="0.09" d="M13.5686 9.73917L13.022 8.92005L11.7345 9.77153C10.8764 10.1088 10.1005 10.6262 9.45939 11.2889L8.15493 12.1591L8.78162 13.0991C9.1733 13.6866 10.5833 13.4397 11.9321 12.5337C13.2808 11.6277 14.0574 10.4289 13.6657 9.84135C13.638 9.80317 13.6053 9.76881 13.5686 9.73917Z" fill="black"/>
<path d="M11.3052 11.5969C12.654 10.697 13.4301 9.49183 13.0386 8.90505C12.6471 8.31827 11.2363 8.57209 9.88753 9.47198C8.53872 10.3719 7.76266 11.577 8.15414 12.1638C8.54562 12.7506 9.9564 12.4968 11.3052 11.5969Z" fill="#FFD200"/>
<path opacity="0.09" d="M10.0963 20.3894C10.0963 20.3894 12.6677 20.8816 12.6201 22.8229C12.5724 24.7643 12.9862 25.2071 12.9862 25.2071C12.1825 25.2818 11.372 25.1955 10.6021 24.9533C9.37764 24.5548 10.0963 20.3894 10.0963 20.3894Z" fill="black"/>
<path d="M9.4083 25.4881C10.8416 25.4881 12.0036 24.3261 12.0036 22.8928C12.0036 21.4594 10.8416 20.2975 9.4083 20.2975C7.97496 20.2975 6.813 21.4594 6.813 22.8928C6.813 24.3261 7.97496 25.4881 9.4083 25.4881Z" fill="#FFD200"/>
<path opacity="0.09" d="M9.4083 25.4881C10.8416 25.4881 12.0036 24.3261 12.0036 22.8928C12.0036 21.4594 10.8416 20.2975 9.4083 20.2975C7.97496 20.2975 6.813 21.4594 6.813 22.8928C6.813 24.3261 7.97496 25.4881 9.4083 25.4881Z" fill="black"/>
<path d="M8.68284 25.4881C10.1162 25.4881 11.2781 24.3261 11.2781 22.8928C11.2781 21.4594 10.1162 20.2975 8.68284 20.2975C7.2495 20.2975 6.08755 21.4594 6.08755 22.8928C6.08755 24.3261 7.2495 25.4881 8.68284 25.4881Z" fill="#FFD200"/>
<path d="M5.04534 19.0322C6.47868 19.0322 7.64064 17.8702 7.64064 16.4369C7.64064 15.0035 6.47868 13.8416 5.04534 13.8416C3.612 13.8416 2.45004 15.0035 2.45004 16.4369C2.45004 17.8702 3.612 19.0322 5.04534 19.0322Z" fill="#FFD200"/>
<path opacity="0.09" d="M5.04534 19.0322C6.47868 19.0322 7.64064 17.8702 7.64064 16.4369C7.64064 15.0035 6.47868 13.8416 5.04534 13.8416C3.612 13.8416 2.45004 15.0035 2.45004 16.4369C2.45004 17.8702 3.612 19.0322 5.04534 19.0322Z" fill="black"/>
<path d="M5.04534 18.3067C6.47868 18.3067 7.64064 17.1448 7.64064 15.7114C7.64064 14.2781 6.47868 13.1161 5.04534 13.1161C3.612 13.1161 2.45004 14.2781 2.45004 15.7114C2.45004 17.1448 3.612 18.3067 5.04534 18.3067Z" fill="#FFD200"/>
<path opacity="0.09" d="M8.0204 23.218C8.0204 23.218 11.3156 23.7034 8.85314 27.1025C6.39067 30.5015 5.97345 25.7742 8.0204 23.218Z" fill="black"/>
</svg>
